<?xml version="1.0" standalone="no"?><svg xmlns="http://www.w3.org/2000/svg" viewBox="0 0 1440 320"><path fill="#002db3" fill-opacity="1" d="M0,160L14.1,138.7C28.2,117,56,75,85,69.3C112.9,64,141,96,169,106.7C197.6,117,226,107,254,90.7C282.4,75,311,53,339,64C367.1,75,395,117,424,160C451.8,203,480,245,508,218.7C536.5,192,565,96,593,90.7C621.2,85,649,171,678,197.3C705.9,224,734,192,762,202.7C790.6,213,819,267,847,256C875.3,245,904,171,932,133.3C960,96,988,96,1016,128C1044.7,160,1073,224,1101,240C1129.4,256,1158,224,1186,197.3C1214.1,171,1242,149,1271,160C1298.8,171,1327,213,1355,240C1383.5,267,1412,277,1426,282.7L1440,288L1440,0L1425.9,0C1411.8,0,1384,0,1355,0C1327.1,0,1299,0,1271,0C1242.4,0,1214,0,1186,0C1157.6,0,1129,0,1101,0C1072.9,0,1045,0,1016,0C988.2,0,960,0,932,0C903.5,0,875,0,847,0C818.8,0,791,0,762,0C734.1,0,706,0,678,0C649.4,0,621,0,593,0C564.7,0,536,0,508,0C480,0,452,0,424,0C395.3,0,367,0,339,0C310.6,0,282,0,254,0C225.9,0,198,0,169,0C141.2,0,113,0,85,0C56.5,0,28,0,14,0L0,0Z"></path></svg>