<?xml version="1.0" standalone="no"?><svg xmlns="http://www.w3.org/2000/svg" viewBox="0 0 1440 320"><path fill="#1c1c1c" fill-opacity="1" d="M0,32L21.8,53.3C43.6,75,87,117,131,138.7C174.5,160,218,160,262,165.3C305.5,171,349,181,393,202.7C436.4,224,480,256,524,229.3C567.3,203,611,117,655,96C698.2,75,742,117,785,128C829.1,139,873,117,916,138.7C960,160,1004,224,1047,234.7C1090.9,245,1135,203,1178,165.3C1221.8,128,1265,96,1309,74.7C1352.7,53,1396,43,1418,37.3L1440,32L1440,320L1418.2,320C1396.4,320,1353,320,1309,320C1265.5,320,1222,320,1178,320C1134.5,320,1091,320,1047,320C1003.6,320,960,320,916,320C872.7,320,829,320,785,320C741.8,320,698,320,655,320C610.9,320,567,320,524,320C480,320,436,320,393,320C349.1,320,305,320,262,320C218.2,320,175,320,131,320C87.3,320,44,320,22,320L0,320Z"></path></svg>