<?xml version="1.0" standalone="no"?><svg xmlns="http://www.w3.org/2000/svg" viewBox="0 0 1440 320"><path fill="#002db3" fill-opacity="1" d="M0,32L26.7,37.3C53.3,43,107,53,160,64C213.3,75,267,85,320,80C373.3,75,427,53,480,53.3C533.3,53,587,75,640,90.7C693.3,107,747,117,800,154.7C853.3,192,907,256,960,277.3C1013.3,299,1067,277,1120,250.7C1173.3,224,1227,192,1280,176C1333.3,160,1387,160,1413,160L1440,160L1440,320L1413.3,320C1386.7,320,1333,320,1280,320C1226.7,320,1173,320,1120,320C1066.7,320,1013,320,960,320C906.7,320,853,320,800,320C746.7,320,693,320,640,320C586.7,320,533,320,480,320C426.7,320,373,320,320,320C266.7,320,213,320,160,320C106.7,320,53,320,27,320L0,320Z"></path></svg>